<svg fill="none" xmlns="http://www.w3.org/2000/svg">
<path fill-rule="evenodd" clip-rule="evenodd" d="M68.16 70C57.935 44.465 46 37.735 46 25V10H48.5C49.163 10 49.7989 9.73661 50.2677 9.26777C50.7366 8.79893 51 8.16304 51 7.5V2.5C51 1.83696 50.7366 1.20107 50.2677 0.732233C49.7989 0.263392 49.163 0 48.5 0H23.5C22.8369 0 22.201 0.263392 21.7322 0.732233C21.2634 1.20107 21 1.83696 21 2.5V7.5C21 8.16304 21.2634 8.79893 21.7322 9.26777C22.201 9.73661 22.8369 10 23.5 10H26V25C26 37.735 14.065 44.465 3.83997 70C0.584972 78.125 -7.77503 90 36 90C79.775 90 71.415 78.125 68.16 70ZM60.075 78.755C56.565 79.805 49.58 81 36 81C22.42 81 15.435 79.805 11.925 78.755C10.68 78.385 10.195 76.94 10.635 75.615C11.735 72.265 13.81 66.475 17.69 60.01C27.17 44.215 37.005 62.495 45.19 62.495C53.375 62.495 51.13 54.69 54.31 60.01C57.2363 64.9322 59.6027 70.1665 61.365 75.615C61.805 76.94 61.32 78.38 60.075 78.755Z" />
</svg>
