<svg width="100" height="100" viewBox="0 0 100 100" fill="none" xmlns="http://www.w3.org/2000/svg">
<rect width="100" height="100" rx="20" fill="url(#paint0_linear_402_61)"/>
<g clip-path="url(#clip0_402_61)">
<g filter="url(#filter0_d_402_61)">
<path d="M31 56.5573H33C32.9998 56.1684 32.8862 55.7879 32.673 55.4625C32.4599 55.1371 32.1565 54.8809 31.8 54.7253L31 56.5573ZM68.3333 56.5573L67.5333 54.7253C67.1768 54.8809 66.8734 55.1371 66.6603 55.4625C66.4472 55.7879 66.3335 56.1684 66.3333 56.5573H68.3333ZM59.6667 36.3333C59.6667 36.8638 59.8774 37.3725 60.2525 37.7475C60.6275 38.1226 61.1362 38.3333 61.6667 38.3333C62.1971 38.3333 62.7058 38.1226 63.0809 37.7475C63.456 37.3725 63.6667 36.8638 63.6667 36.3333H59.6667ZM35.6667 36.3333C35.6667 36.8638 35.8774 37.3725 36.2525 37.7475C36.6275 38.1226 37.1362 38.3333 37.6667 38.3333C38.1971 38.3333 38.7058 38.1226 39.0809 37.7475C39.456 37.3725 39.6667 36.8638 39.6667 36.3333H35.6667ZM55 74.3333C54.4696 74.3333 53.9609 74.544 53.5858 74.9191C53.2107 75.2942 53 75.8029 53 76.3333C53 76.8638 53.2107 77.3725 53.5858 77.7476C53.9609 78.1226 54.4696 78.3333 55 78.3333V74.3333ZM44.3333 78.3333C44.8638 78.3333 45.3725 78.1226 45.7475 77.7476C46.1226 77.3725 46.3333 76.8638 46.3333 76.3333C46.3333 75.8029 46.1226 75.2942 45.7475 74.9191C45.3725 74.544 44.8638 74.3333 44.3333 74.3333V78.3333ZM36.3333 29C32.2667 29 28.3666 30.6155 25.491 33.491C22.6155 36.3666 21 40.2667 21 44.3333H25C25 41.3275 26.194 38.4449 28.3195 36.3195C30.4449 34.194 33.3275 33 36.3333 33V29ZM63 33C66.0058 33 68.8885 34.194 71.0139 36.3195C73.1393 38.4449 74.3333 41.3275 74.3333 44.3333H78.3333C78.3333 40.2667 76.7179 36.3666 73.8423 33.491C70.9667 30.6155 67.0667 29 63 29V33ZM41.6667 74.3333C39.096 74.3333 37.368 74.328 36.08 74.1547C34.8507 73.9893 34.3227 73.704 33.976 73.3547L31.1493 76.1867C32.3627 77.4 33.8747 77.8933 35.5493 78.12C37.1653 78.3387 39.208 78.3333 41.6667 78.3333V74.3333ZM29 65.6667C29 68.1253 28.9947 70.168 29.2133 71.784C29.4373 73.4587 29.9333 74.9707 31.1467 76.184L33.976 73.3573C33.6293 73.0107 33.344 72.4827 33.176 71.2507C33.0053 69.9653 33 68.2373 33 65.6667H29ZM66.3333 65.6667C66.3333 68.2373 66.328 69.9653 66.1547 71.2533C65.9893 72.4827 65.704 73.0107 65.3547 73.3573L68.1867 76.184C69.4 74.9707 69.8933 73.4587 70.12 71.784C70.3387 70.168 70.3333 68.1253 70.3333 65.6667H66.3333ZM57.6667 78.3333C60.1253 78.3333 62.168 78.3387 63.784 78.12C65.4587 77.896 66.9733 77.4 68.1867 76.184L65.3573 73.3573C65.0107 73.704 64.4827 73.9893 63.2507 74.1573C61.9653 74.328 60.2373 74.3333 57.6667 74.3333V78.3333ZM36.3333 33C36.904 33 37.4613 33.0427 38.008 33.1227L38.592 29.1653C37.8442 29.055 37.0893 28.9998 36.3333 29V33ZM49.6667 21C46.7407 21 43.8883 21.9164 41.5098 23.6205C39.1313 25.3246 37.3463 27.7308 36.4053 30.5013L40.192 31.7867C40.8644 29.8075 42.1399 28.0886 43.8392 26.8714C45.5385 25.6542 47.5764 24.9998 49.6667 25V21ZM36.4053 30.5013C35.9147 31.9504 35.6652 33.4701 35.6667 35H39.6667C39.6667 33.872 39.8533 32.792 40.1947 31.7867L36.4053 30.5013ZM63 29C62.2347 29 61.48 29.056 60.7413 29.1653L61.328 33.1227C61.8816 33.0409 62.4404 32.9999 63 33V29ZM49.6667 25C51.7565 25.0003 53.7938 25.655 55.4926 26.8722C57.1914 28.0894 58.4664 29.8079 59.1387 31.7867L62.9253 30.5013C61.9845 27.7313 60.1999 25.3253 57.822 23.6213C55.444 21.9172 52.5921 21.0006 49.6667 21V25ZM59.1387 31.7867C59.48 32.792 59.6667 33.872 59.6667 35H63.6667C63.6667 33.4293 63.4053 31.9173 62.9253 30.5013L59.1413 31.7867H59.1387ZM33 65.6667V56.5573H29V65.6667H33ZM31.8 54.7253C29.7783 53.8426 28.0582 52.3893 26.8503 50.5434C25.6424 48.6975 24.9994 46.5393 25 44.3333H21C20.9998 47.3172 21.8701 50.2364 23.5042 52.7331C25.1384 55.2297 27.4653 57.1955 30.2 58.3893L31.8 54.7253ZM66.3333 56.5573V65.6667H70.3333V56.5573H66.3333ZM74.3333 44.3333C74.3339 46.5393 73.6909 48.6975 72.483 50.5434C71.2752 52.3893 69.555 53.8426 67.5333 54.7253L69.1333 58.3893C71.868 57.1955 74.195 55.2297 75.8291 52.7331C77.4632 50.2364 78.3335 47.3172 78.3333 44.3333H74.3333ZM59.6667 35V36.3333H63.6667V35H59.6667ZM35.6667 35V36.3333H39.6667V35H35.6667ZM57.6667 74.3333H55V78.3333H57.6667V74.3333ZM44.3333 74.3333H41.6667V78.3333H44.3333V74.3333Z" fill="white"/>
<path d="M31 65.6666H52.3333M68.3333 65.6666H63" stroke="white" stroke-width="1.5" stroke-linecap="round" stroke-linejoin="round"/>
</g>
</g>
<defs>
<filter id="filter0_d_402_61" x="17" y="21" width="65.3333" height="65.3334" filterUnits="userSpaceOnUse" color-interpolation-filters="sRGB">
<feFlood flood-opacity="0" result="BackgroundImageFix"/>
<feColorMatrix in="SourceAlpha" type="matrix" values="0 0 0 0 0 0 0 0 0 0 0 0 0 0 0 0 0 0 127 0" result="hardAlpha"/>
<feOffset dy="4"/>
<feGaussianBlur stdDeviation="2"/>
<feComposite in2="hardAlpha" operator="out"/>
<feColorMatrix type="matrix" values="0 0 0 0 0 0 0 0 0 0 0 0 0 0 0 0 0 0 0.25 0"/>
<feBlend mode="normal" in2="BackgroundImageFix" result="effect1_dropShadow_402_61"/>
<feBlend mode="normal" in="SourceGraphic" in2="effect1_dropShadow_402_61" result="shape"/>
</filter>
<linearGradient id="paint0_linear_402_61" x1="-16" y1="-6" x2="100" y2="100" gradientUnits="userSpaceOnUse">
<stop stop-color="#FC6507"/>
<stop offset="1" stop-color="#DBAD09"/>
</linearGradient>
<clipPath id="clip0_402_61">
<rect width="64" height="64" fill="white" transform="translate(18 18)"/>
</clipPath>
</defs>
</svg>
