<svg fill="none" xmlns="http://www.w3.org/2000/svg">
<path d="M21.3312 1.76875V7.1H8C3.58125 7.1 0 10.6813 0 15.1C0 16.4438 0.3625 17.6875 0.95 18.8L4.25 16.45C4.1 16.025 4 15.5813 4 15.1063C4 12.8938 5.79375 11.1063 8 11.1063H21.3312V16.4375L32 9.76875V8.4375L21.3312 1.76875ZM27.75 16.425C27.9 16.85 28 17.2938 28 17.7688C28 19.9813 26.2125 21.7688 24 21.7688H10.6687V16.4375L0 23.1063V24.4375L10.6687 31.1063V25.775H24C28.4188 25.775 32 22.1938 32 17.775C32 16.4313 31.6375 15.1875 31.05 14.075L27.75 16.425Z" />
</svg>
