<svg viewBox="0 0 92 80" fill="none" xmlns="http://www.w3.org/2000/svg">
<path d="M0.166687 79.4999L46 0.333252L91.8334 79.4999H0.166687ZM46 66.9999C47.1806 66.9999 48.1709 66.5999 48.9709 65.7999C49.7681 65.0027 50.1667 64.0138 50.1667 62.8332C50.1667 61.6527 49.7681 60.6638 48.9709 59.8666C48.1709 59.0666 47.1806 58.6666 46 58.6666C44.8195 58.6666 43.8306 59.0666 43.0334 59.8666C42.2334 60.6638 41.8334 61.6527 41.8334 62.8332C41.8334 64.0138 42.2334 65.0027 43.0334 65.7999C43.8306 66.5999 44.8195 66.9999 46 66.9999ZM41.8334 54.4999H50.1667V33.6666H41.8334V54.4999Z" />
</svg>
